<?xml version="1.0" standalone="no"?>
<!DOCTYPE svg PUBLIC "-//W3C//DTD SVG 20010904//EN"
 "http://www.w3.org/TR/2001/REC-SVG-20010904/DTD/svg10.dtd">
<svg version="1.0" xmlns="http://www.w3.org/2000/svg"
 width="300.000000pt" height="154.000000pt" viewBox="0 0 300.000000 154.000000"
 preserveAspectRatio="xMidYMid meet">

<g transform="translate(0.000000,154.000000) scale(0.100000,-0.100000)"
fill="#E51B1B" stroke="none">
<path d="M1630 1347 c0 -24 25 -47 57 -53 26 -5 37 -1 57 19 14 15 26 31 26
37 0 16 -37 12 -44 -5 -3 -8 -15 -15 -26 -15 -11 0 -23 7 -26 15 -7 18 -44 20
-44 2z"/>
<path d="M331 1247 c-66 -23 -76 -51 -76 -207 0 -158 10 -184 80 -208 73 -24
132 9 155 87 8 30 7 31 -21 31 -19 0 -29 -5 -29 -15 0 -25 -38 -55 -69 -55
-50 0 -61 28 -61 160 0 130 11 160 58 160 35 0 49 -10 61 -43 8 -19 17 -27 36
-27 28 0 31 11 14 58 -19 54 -86 81 -148 59z"/>
<path d="M1293 1249 c-17 -5 -42 -24 -55 -42 -21 -30 -23 -42 -23 -167 0 -125
2 -137 23 -167 37 -52 109 -62 179 -24 36 19 48 68 48 196 0 101 -3 125 -19
152 -29 47 -95 69 -153 52z m93 -70 c16 -18 19 -37 19 -139 0 -102 -3 -121
-19 -139 -19 -21 -61 -28 -82 -13 -25 17 -34 56 -34 152 0 96 9 135 34 152 21
15 63 8 82 -13z"/>
<path d="M560 1220 c0 -29 2 -30 45 -30 l45 0 0 -180 0 -180 30 0 30 0 0 179
0 180 43 3 c38 3 42 6 45 31 l3 27 -120 0 -121 0 0 -30z"/>
<path d="M880 1041 l0 -211 30 0 30 0 0 75 0 75 45 0 c26 0 60 7 76 16 74 38
78 188 7 233 -13 8 -59 17 -105 19 l-83 5 0 -212z m162 132 c22 -19 25 -90 5
-117 -8 -11 -31 -20 -60 -23 l-47 -6 0 82 0 81 42 0 c24 0 49 -7 60 -17z"/>
<path d="M1570 1039 l0 -210 31 3 c29 3 34 10 85 123 30 66 60 134 68 150 12
27 13 13 8 -122 l-5 -153 32 0 31 0 0 210 0 210 -29 0 c-27 0 -32 -7 -90 -136
-33 -74 -61 -139 -61 -144 0 -5 -3 -11 -7 -13 -5 -3 -6 62 -5 144 l4 149 -31
0 -31 0 0 -211z"/>
<path d="M331 687 c-66 -23 -76 -51 -76 -207 0 -158 10 -184 80 -208 73 -24
132 9 155 87 8 30 7 31 -21 31 -19 0 -29 -5 -29 -15 0 -25 -38 -55 -69 -55
-50 0 -61 28 -61 160 0 130 11 160 58 160 35 0 49 -10 61 -43 8 -19 17 -27 36
-27 28 0 31 11 14 58 -19 54 -86 81 -148 59z"/>
<path d="M560 660 c0 -29 2 -30 45 -30 l45 0 0 -180 0 -180 30 0 30 0 0 179 0
180 43 3 c38 3 42 6 45 31 l3 27 -120 0 -121 0 0 -30z"/>
<path d="M881 485 c-28 -112 -51 -207 -51 -210 0 -3 13 -5 29 -5 25 0 29 4 37
43 l9 42 57 3 57 3 12 -46 c10 -41 14 -45 41 -45 20 0 29 4 26 13 -3 6 -27
101 -54 210 l-48 197 -32 0 -32 0 -51 -205z m124 -56 c6 -17 1 -19 -40 -19
-39 0 -46 3 -41 18 3 9 13 55 22 101 l18 84 18 -83 c10 -46 20 -91 23 -101z"/>
<path d="M1180 480 l0 -210 30 0 30 0 0 95 0 95 60 0 60 0 0 -95 0 -95 30 0
30 0 0 210 0 210 -30 0 -30 0 0 -90 0 -90 -60 0 -60 0 0 90 0 90 -30 0 -30 0
0 -210z"/>
<path d="M1578 553 c-5 -143 -24 -223 -54 -223 -11 0 -14 -16 -14 -65 0 -63 1
-65 25 -65 22 0 25 4 25 35 l0 35 105 0 105 0 0 -35 c0 -31 3 -35 25 -35 24 0
25 2 25 65 0 58 -2 65 -20 65 -19 0 -20 7 -20 180 l0 180 -99 0 -99 0 -4 -137z
m152 -73 l0 -150 -64 0 -63 0 13 43 c7 23 16 90 19 150 l7 107 44 0 44 0 0
-150z"/>
<path d="M1931 485 c-28 -112 -51 -207 -51 -210 0 -3 13 -5 29 -5 25 0 29 4
37 43 l9 42 57 3 57 3 12 -46 c10 -41 14 -45 41 -45 20 0 29 4 26 13 -3 6 -27
101 -54 210 l-48 197 -32 0 -32 0 -51 -205z m124 -56 c6 -17 1 -19 -40 -19
-39 0 -46 3 -41 18 3 9 13 55 22 101 l18 84 18 -83 c10 -46 20 -91 23 -101z"/>
<path d="M2230 481 l0 -211 30 0 30 0 0 75 0 75 45 0 c26 0 60 7 76 16 74 38
78 188 7 233 -13 8 -59 17 -105 19 l-83 5 0 -212z m162 132 c22 -19 25 -90 5
-117 -8 -11 -31 -20 -60 -23 l-47 -6 0 82 0 81 42 0 c24 0 49 -7 60 -17z"/>
<path d="M2530 660 c0 -29 2 -30 45 -30 l45 0 0 -180 0 -180 30 0 30 0 0 179
0 180 43 3 c38 3 42 6 45 31 l3 27 -120 0 -121 0 0 -30z"/>
</g>
</svg>
